REM DIRINDEX 1\5,1\2\6,1\2\7,1\3\8,1\3\9,1\3\10,1\3\11,1\4\12,1\4\13,1\4\14
REM DIRNAME cjc043,folder01,folder02,folder03,folder04,folder05,folder06,folder07,folder08,folder09,folder10,folder11,folder12,folder13
TITLE ""
FILE "5Q_t_001-015.mp3" MP3
  TRACK 01 AUDIO
    TITLE "5:cjc043_0388"
    INDEX 01 00:00:00
  TRACK 02 AUDIO
    TITLE "0:"
    INDEX 01 00:04:46
  TRACK 03 AUDIO
    TITLE "6:cjc043_0389"
    INDEX 01 00:05:24
  TRACK 04 AUDIO
    TITLE "0:"
    INDEX 01 00:06:28
  TRACK 05 AUDIO
    TITLE "7:cjc043_0390"
    INDEX 01 00:07:05
  TRACK 06 AUDIO
    TITLE "0:"
    INDEX 01 00:13:10
  TRACK 07 AUDIO
    TITLE "6:cjc043_0391"
    INDEX 01 00:13:55
  TRACK 08 AUDIO
    TITLE "0:"
    INDEX 01 00:14:49
  TRACK 09 AUDIO
    TITLE "7:cjc043_0392"
    INDEX 01 00:15:25
  TRACK 10 AUDIO
    TITLE "0:"
    INDEX 01 00:16:40
  TRACK 11 AUDIO
    TITLE "6:cjc043_0393"
    INDEX 01 00:17:16
  TRACK 12 AUDIO
    TITLE "0:"
    INDEX 01 00:18:19
  TRACK 13 AUDIO
    TITLE "7:cjc043_0394"
    INDEX 01 00:18:74
  TRACK 14 AUDIO
    TITLE "0:"
    INDEX 01 00:23:34
  TRACK 15 AUDIO
    TITLE "6:cjc043_0395"
    INDEX 01 00:24:08
  TRACK 16 AUDIO
    TITLE "0:"
    INDEX 01 00:25:11
  TRACK 17 AUDIO
    TITLE "7:cjc043_0396"
    INDEX 01 00:25:64
  TRACK 18 AUDIO
    TITLE "0:"
    INDEX 01 00:26:58
  TRACK 19 AUDIO
    TITLE "6:cjc043_0397"
    INDEX 01 00:27:39
  TRACK 20 AUDIO
    TITLE "0:"
    INDEX 01 00:28:47
  TRACK 21 AUDIO
    TITLE "7:cjc043_0398"
    INDEX 01 00:29:17
  TRACK 22 AUDIO
    TITLE "0:"
    INDEX 01 00:34:73
  TRACK 23 AUDIO
    TITLE "6:cjc043_0399"
    INDEX 01 00:35:49
  TRACK 24 AUDIO
    TITLE "0:"
    INDEX 01 00:36:58
  TRACK 25 AUDIO
    TITLE "7:cjc043_0400"
    INDEX 01 00:37:36
  TRACK 26 AUDIO
    TITLE "0:"
    INDEX 01 00:39:11
  TRACK 27 AUDIO
    TITLE "6:cjc043_0401"
    INDEX 01 00:39:56
  TRACK 28 AUDIO
    TITLE "0:"
    INDEX 01 00:40:58
  TRACK 29 AUDIO
    TITLE "7:cjc043_0402"
    INDEX 01 00:41:36
  TRACK 30 AUDIO
    TITLE "0:"
    INDEX 01 00:44:07
  TRACK 31 AUDIO
    TITLE "6:cjc043_0403"
    INDEX 01 00:44:63
  TRACK 32 AUDIO
    TITLE "0:"
    INDEX 01 00:45:61
  TRACK 33 AUDIO
    TITLE "7:cjc043_0404"
    INDEX 01 00:46:37
  TRACK 34 AUDIO
    TITLE "0:"
    INDEX 01 00:49:14
  TRACK 35 AUDIO
    TITLE "6:cjc043_0405"
    INDEX 01 00:49:69
  TRACK 36 AUDIO
    TITLE "0:"
    INDEX 01 00:50:62
  TRACK 37 AUDIO
    TITLE "7:cjc043_0406"
    INDEX 01 00:51:40
  TRACK 38 AUDIO
    TITLE "0:"
    INDEX 01 00:53:02
  TRACK 39 AUDIO
    TITLE "6:cjc043_0407"
    INDEX 01 00:53:58
  TRACK 40 AUDIO
    TITLE "0:"
    INDEX 01 00:54:62
  TRACK 41 AUDIO
    TITLE "7:cjc043_0408"
    INDEX 01 00:55:34
  TRACK 42 AUDIO
    TITLE "0:"
    INDEX 01 00:57:50
  TRACK 43 AUDIO
    TITLE "6:cjc043_0409"
    INDEX 01 00:58:24
  TRACK 44 AUDIO
    TITLE "0:"
    INDEX 01 00:59:28
  TRACK 45 AUDIO
    TITLE "7:cjc043_0410"
    INDEX 01 01:00:08
  TRACK 46 AUDIO
    TITLE "0:"
    INDEX 01 01:04:47
  TRACK 47 AUDIO
    TITLE "6:cjc043_0411"
    INDEX 01 01:05:22
  TRACK 48 AUDIO
    TITLE "0:"
    INDEX 01 01:06:32
  TRACK 49 AUDIO
    TITLE "7:cjc043_0412"
    INDEX 01 01:07:08
  TRACK 50 AUDIO
    TITLE "0:"
    INDEX 01 01:08:19
  TRACK 51 AUDIO
    TITLE "6:cjc043_0413"
    INDEX 01 01:08:68
  TRACK 52 AUDIO
    TITLE "0:"
    INDEX 01 01:09:71
  TRACK 53 AUDIO
    TITLE "7:cjc043_0414"
    INDEX 01 01:10:49
  TRACK 54 AUDIO
    TITLE "0:"
    INDEX 01 01:11:37
  TRACK 55 AUDIO
    TITLE "6:cjc043_0415"
    INDEX 01 01:12:17
  TRACK 56 AUDIO
    TITLE "0:"
    INDEX 01 01:13:20
  TRACK 57 AUDIO
    TITLE "7:cjc043_0416"
    INDEX 01 01:13:71
  TRACK 58 AUDIO
    TITLE "0:"
    INDEX 01 01:18:64
  TRACK 59 AUDIO
    TITLE "6:cjc043_0417"
    INDEX 01 01:19:38
  TRACK 60 AUDIO
    TITLE "0:"
    INDEX 01 01:20:34
  TRACK 61 AUDIO
    TITLE "7:cjc043_0418"
    INDEX 01 01:21:18
  TRACK 62 AUDIO
    TITLE "0:"
    INDEX 01 01:22:31
